<svg width="118" height="133" viewBox="0 0 118 133" fill="none" xmlns="http://www.w3.org/2000/svg">
<path d="M95.7507 0.384811L74.0208 22.1136L81.2306 29.3234L90.653 19.9009V113.099L81.2306 103.676L74.0208 110.886L95.7507 132.615L117.481 110.886L110.271 103.676L100.848 113.099V19.9009L110.271 29.3236L117.481 22.1136L95.7507 0.384811ZM27.0901 0.457878C20.4727 1.3174 14.4725 9.07971 14.4725 19.1309C14.4725 24.6698 16.3901 29.5686 19.2006 32.9554L22.5537 36.9948L17.3946 37.9645C13.7413 38.6512 11.0627 40.5812 8.77305 43.7237C6.48335 46.8664 4.73287 51.245 3.50603 56.2908C1.28487 65.4326 0.796348 76.5945 0.71875 86.4338H12.8591L16.1927 131.133C24.6588 133.045 33.6978 132.977 41.8515 131.141L44.8007 86.4338H56.36C56.3523 76.4741 56.2249 65.1582 54.2121 55.947C53.1026 50.8683 51.4203 46.4962 49.1032 43.3892C46.7851 40.2825 43.9828 38.3638 39.8812 37.7283L34.6159 36.9126L37.9396 32.7484C40.6286 29.3792 42.4516 24.5364 42.4516 19.1314C42.4516 8.4156 35.7524 0.484216 28.4616 0.484216L27.0901 0.457878Z" fill="#FFDBAC"/>
</svg>
