<svg width="35" height="35" viewBox="0 0 35 35" fill="none" xmlns="http://www.w3.org/2000/svg">
<g clip-path="url(#clip0_301_4574)">
<path d="M22.7798 10C22.0246 10 21.3004 9.69898 20.7664 9.16316C20.2324 8.62734 19.9324 7.90062 19.9324 7.14286V0H11.3901C9.5028 0.00226837 7.69347 0.755546 6.35897 2.0946C5.02446 3.43365 4.27375 5.24915 4.27148 7.14286V27.1429C4.27375 29.0366 5.02446 30.8521 6.35897 32.1911C7.69347 33.5302 9.5028 34.2834 11.3901 34.2857H22.7798C24.6671 34.2834 26.4764 33.5302 27.8109 32.1911C29.1454 30.8521 29.8962 29.0366 29.8984 27.1429V10H22.7798ZM16.6735 28.1429L14.3799 30.4843C13.778 31.0871 12.9623 31.4256 12.1119 31.4256C11.2615 31.4256 10.4458 31.0871 9.84392 30.4843L8.94555 29.5714C8.68682 29.2989 8.54573 28.935 8.55292 28.5586C8.56012 28.1823 8.71504 27.8241 8.984 27.5617C9.25296 27.2994 9.61424 27.1541 9.98933 27.1575C10.3644 27.161 10.723 27.3128 10.9872 27.58L11.8642 28.4843C11.9318 28.5458 12.0204 28.5788 12.1116 28.5764C12.2028 28.574 12.2896 28.5364 12.3539 28.4714L14.649 26.1429C14.7762 25.9946 14.9324 25.8741 15.1079 25.7888C15.2834 25.7036 15.4745 25.6554 15.6693 25.6474C15.8641 25.6393 16.0585 25.6715 16.2405 25.7419C16.4224 25.8123 16.588 25.9195 16.7269 26.0567C16.8659 26.194 16.9752 26.3584 17.0482 26.5399C17.1213 26.7213 17.1563 26.9158 17.1513 27.1114C17.1463 27.307 17.1013 27.4995 17.0191 27.6769C16.9369 27.8543 16.8193 28.0129 16.6735 28.1429ZM18.5087 21.4286V20H15.6612V21.4286C15.6612 21.8075 15.5112 22.1708 15.2442 22.4387C14.9772 22.7066 14.6151 22.8571 14.2375 22.8571C13.8599 22.8571 13.4978 22.7066 13.2308 22.4387C12.9638 22.1708 12.8138 21.8075 12.8138 21.4286V15.7143C12.8138 14.5776 13.2638 13.4876 14.0648 12.6838C14.8658 11.8801 15.9522 11.4286 17.0849 11.4286C18.2177 11.4286 19.3041 11.8801 20.1051 12.6838C20.9061 13.4876 21.3561 14.5776 21.3561 15.7143V21.4286C21.3561 21.8075 21.2061 22.1708 20.9391 22.4387C20.6721 22.7066 20.31 22.8571 19.9324 22.8571C19.5548 22.8571 19.1927 22.7066 18.9257 22.4387C18.6587 22.1708 18.5087 21.8075 18.5087 21.4286ZM24.2035 30H21.3561C20.9785 30 20.6164 29.8495 20.3494 29.5816C20.0824 29.3137 19.9324 28.9503 19.9324 28.5714C19.9324 28.1925 20.0824 27.8292 20.3494 27.5613C20.6164 27.2934 20.9785 27.1429 21.3561 27.1429H24.2035C24.5811 27.1429 24.9433 27.2934 25.2103 27.5613C25.4773 27.8292 25.6273 28.1925 25.6273 28.5714C25.6273 28.9503 25.4773 29.3137 25.2103 29.5816C24.9433 29.8495 24.5811 30 24.2035 30ZM18.5087 15.7143V17.1429H15.6612V15.7143C15.6612 15.3354 15.8112 14.972 16.0782 14.7041C16.3452 14.4362 16.7074 14.2857 17.0849 14.2857C17.4625 14.2857 17.8247 14.4362 18.0917 14.7041C18.3587 14.972 18.5087 15.3354 18.5087 15.7143ZM29.4713 7.14286H22.7798V0.428571C23.7847 0.774254 24.699 1.3426 25.455 2.09143L27.8127 4.46C28.5598 5.21756 29.1268 6.13466 29.4713 7.14286Z" fill="#242222"/>
</g>
<defs>
<clipPath id="clip0_301_4574">
<rect width="34.1692" height="34.2857" fill="white"/>
</clipPath>
</defs>
</svg>
