<svg width="24" height="24" viewBox="0 0 24 24" fill="none" xmlns="http://www.w3.org/2000/svg">
<path d="M6.96 14.6402V7.20019H2.4C1.08 7.20019 0 8.28019 0 9.60019V16.8002C0 18.1202 1.08 19.2002 2.4 19.2002H3.6V22.8002L7.2 19.2002H13.2C14.52 19.2002 15.6 18.1202 15.6 16.8002V14.6162C15.5211 14.6326 15.4406 14.6411 15.36 14.6414H6.96V14.6402ZM21.6 1.2002H10.8C9.48 1.2002 8.4 2.2802 8.4 3.6002V13.2002H16.8L20.4 16.8002V13.2002H21.6C22.92 13.2002 24 12.1214 24 10.8002V3.6002C24 2.2802 22.92 1.2002 21.6 1.2002Z" fill="black"/>
</svg>
