<svg width="28" height="35" viewBox="0 0 28 35" fill="none" xmlns="http://www.w3.org/2000/svg">
<path d="M13.5315 34.275H24.9414C25.506 34.275 26.0474 34.0499 26.4466 33.6494C26.8458 33.2488 27.0701 32.7055 27.0701 32.1391V2.13593C27.0701 1.85528 27.015 1.57739 26.9079 1.31813C26.8008 1.05887 26.6439 0.823328 26.446 0.624966C26.2481 0.426604 26.0133 0.26931 25.7548 0.162075C25.4963 0.0548396 25.2193 -0.000234296 24.9397 7.49182e-07H9.73768V0.706609C9.7459 0.78146 9.75007 0.856704 9.75016 0.932008V6.78165C9.74969 7.57904 9.43378 8.34364 8.87186 8.90748C8.30993 9.47132 7.54795 9.78829 6.75327 9.78876H0.925271C0.864655 9.78876 0.800477 9.78876 0.746993 9.78876H0V32.1498C0 32.7163 0.224273 33.2596 0.623476 33.6601C1.02268 34.0607 1.56411 34.2857 2.12867 34.2857H13.5386L13.5315 34.275ZM13.9611 27.0175H6.52506C6.25838 27.0175 6.00264 26.9112 5.81407 26.722C5.6255 26.5328 5.51957 26.2761 5.51957 26.0086C5.51957 25.741 5.6255 25.4843 5.81407 25.2951C6.00264 25.1059 6.25838 24.9996 6.52506 24.9996H13.9665C14.2332 24.9996 14.4889 25.1059 14.6775 25.2951C14.866 25.4843 14.972 25.741 14.972 26.0086C14.972 26.2761 14.866 26.5328 14.6775 26.722C14.4889 26.9112 14.2332 27.0175 13.9665 27.0175H13.9611ZM21.4026 21.8673H6.52506C6.25838 21.8673 6.00264 21.761 5.81407 21.5718C5.6255 21.3826 5.51957 21.1259 5.51957 20.8584C5.51957 20.5908 5.6255 20.3342 5.81407 20.1449C6.00264 19.9557 6.25838 19.8494 6.52506 19.8494H21.4043C21.671 19.8494 21.9268 19.9557 22.1154 20.1449C22.3039 20.3342 22.4099 20.5908 22.4099 20.8584C22.4099 21.1259 22.3039 21.3826 22.1154 21.5718C21.9268 21.761 21.671 21.8673 21.4043 21.8673H21.4026ZM6.52506 14.3808H21.4043C21.671 14.3808 21.9268 14.4871 22.1154 14.6763C22.3039 14.8655 22.4099 15.1222 22.4099 15.3898C22.4099 15.6573 22.3039 15.914 22.1154 16.1032C21.9268 16.2924 21.671 16.3987 21.4043 16.3987H6.52506C6.25838 16.3987 6.00264 16.2924 5.81407 16.1032C5.6255 15.914 5.51957 15.6573 5.51957 15.3898C5.51957 15.1222 5.6255 14.8655 5.81407 14.6763C6.00264 14.4871 6.25838 14.3808 6.52506 14.3808Z" fill="#374858"/>
<path d="M0.925377 8.57776H6.76941C7.23792 8.57448 7.6863 8.38628 8.0176 8.05385C8.34889 7.72143 8.53646 7.27151 8.53973 6.8014V0.926712C8.53973 0.808496 8.51639 0.691452 8.47104 0.582346C8.42569 0.47324 8.35922 0.374238 8.2755 0.291064C8.19178 0.207889 8.09246 0.142192 7.98328 0.0977721C7.8741 0.0533518 7.75723 0.0310891 7.63942 0.0322713C7.52234 0.0321406 7.40643 0.0556745 7.29861 0.101469C7.19079 0.147263 7.09327 0.21438 7.01186 0.298815L0.290693 7.0429C0.162986 7.1678 0.075545 7.32827 0.0396871 7.50356C0.00382911 7.67886 0.021205 7.86091 0.089551 8.02619C0.157897 8.19148 0.274077 8.33239 0.423079 8.43072C0.572081 8.52905 0.747056 8.58027 0.925377 8.57776Z" fill="#374858"/>
</svg>
