<svg width="38" height="30" viewBox="0 0 38 30" fill="none" xmlns="http://www.w3.org/2000/svg">
<path d="M26.8362 14.999C27.7515 14.999 28.6463 14.6848 29.4074 14.096C30.1684 13.5073 30.7616 12.6706 31.1119 11.6915C31.4622 10.7125 31.5538 9.63527 31.3752 8.59596C31.1967 7.55665 30.7559 6.60198 30.1087 5.85268C29.4614 5.10339 28.6368 4.59311 27.7391 4.38637C26.8414 4.17964 25.9108 4.28575 25.0652 4.69126C24.2195 5.09678 23.4967 5.7835 22.9882 6.66459C22.4797 7.54567 22.2083 8.58154 22.2083 9.64121C22.2064 10.3454 22.3249 11.0431 22.5568 11.694C22.7888 12.345 23.1296 12.9365 23.5597 13.4345C23.9898 13.9324 24.5007 14.327 25.063 14.5955C25.6253 14.864 26.228 15.0011 26.8362 14.999ZM12.9576 12.8563C14.0556 12.8559 15.1289 12.4786 16.0417 11.7721C16.9546 11.0656 17.666 10.0617 18.086 8.88716C18.5061 7.71265 18.6159 6.42034 18.4016 5.17358C18.1873 3.92683 17.6585 2.78163 16.882 1.88276C16.1056 0.98389 15.1164 0.371711 14.0395 0.123616C12.9626 -0.124479 11.8463 0.0026496 10.8318 0.488932C9.81727 0.975214 8.95007 1.79882 8.33982 2.85561C7.72957 3.91241 7.40368 5.15494 7.40334 6.42614C7.40013 7.2716 7.5416 8.10942 7.81959 8.89124C8.09758 9.67305 8.50658 10.3834 9.02298 10.9812C9.53938 11.5791 10.1529 12.0526 10.8283 12.3744C11.5036 12.6962 12.2273 12.86 12.9576 12.8563ZM26.8362 19.2844C23.4497 19.2844 16.6558 21.2568 16.6558 25.1774V29.998H37.0167V25.1774C37.0201 21.2548 30.2262 19.2844 26.8362 19.2844ZM12.9576 17.1417C8.64473 17.1417 0 19.6412 0 24.6422V30H12.9576V25.1774C13.0085 23.585 13.4475 22.0417 14.2238 20.7259C15.0001 19.41 16.0821 18.3752 17.3449 17.741C15.9027 17.3769 14.4333 17.1761 12.9576 17.1417Z" fill="#2D421E"/>
</svg>
