<svg width="35" height="35" viewBox="0 0 35 35" fill="none" xmlns="http://www.w3.org/2000/svg">
<g clip-path="url(#clip0_301_4565)">
<path d="M22.7798 12.8571V10H11.3901V12.8571C9.5028 12.8594 7.69347 13.6127 6.35897 14.9517C5.02446 16.2908 4.27375 18.1063 4.27148 20V27.1429C4.27375 29.0366 5.02446 30.8521 6.35897 32.1911C7.69347 33.5302 9.5028 34.2834 11.3901 34.2857H22.7798C24.6671 34.2834 26.4764 33.5302 27.8109 32.1911C29.1454 30.8521 29.8962 29.0366 29.8984 27.1429V20C29.8962 18.1063 29.1454 16.2908 27.8109 14.9517C26.4764 13.6127 24.6671 12.8594 22.7798 12.8571ZM21.3561 24.2857H18.5087V27.1429C18.5087 27.5217 18.3587 27.8851 18.0917 28.153C17.8247 28.4209 17.4625 28.5714 17.0849 28.5714C16.7074 28.5714 16.3452 28.4209 16.0782 28.153C15.8112 27.8851 15.6612 27.5217 15.6612 27.1429V24.2857H12.8138C12.4362 24.2857 12.0741 24.1352 11.8071 23.8673C11.5401 23.5994 11.3901 23.236 11.3901 22.8571C11.3901 22.4783 11.5401 22.1149 11.8071 21.847C12.0741 21.5791 12.4362 21.4286 12.8138 21.4286H15.6612V18.5714C15.6612 18.1925 15.8112 17.8292 16.0782 17.5613C16.3452 17.2934 16.7074 17.1429 17.0849 17.1429C17.4625 17.1429 17.8247 17.2934 18.0917 17.5613C18.3587 17.8292 18.5087 18.1925 18.5087 18.5714V21.4286H21.3561C21.7337 21.4286 22.0958 21.5791 22.3628 21.847C22.6298 22.1149 22.7798 22.4783 22.7798 22.8571C22.7798 23.236 22.6298 23.5994 22.3628 23.8673C22.0958 24.1352 21.7337 24.2857 21.3561 24.2857ZM22.068 7.14286H12.1019C11.158 7.14286 10.2526 6.76658 9.58513 6.09681C8.91764 5.42704 8.54264 4.51863 8.54264 3.57143C8.54264 2.62423 8.91764 1.71582 9.58513 1.04605C10.2526 0.376274 11.158 0 12.1019 0L22.068 0C23.0119 0 23.9173 0.376274 24.5848 1.04605C25.2523 1.71582 25.6273 2.62423 25.6273 3.57143C25.6273 4.51863 25.2523 5.42704 24.5848 6.09681C23.9173 6.76658 23.0119 7.14286 22.068 7.14286Z" fill="#4B4403"/>
</g>
<defs>
<clipPath id="clip0_301_4565">
<rect width="34.1692" height="34.2857" fill="white"/>
</clipPath>
</defs>
</svg>
