<svg width="24" height="24" viewBox="0 0 24 24" fill="none" xmlns="http://www.w3.org/2000/svg">
<path d="M16 1H18V3H19C19.5304 3 20.0391 3.21071 20.4142 3.58579C20.7893 3.96086 21 4.46957 21 5V19C21 20.11 20.11 21 19 21H5C4.46957 21 3.96086 20.7893 3.58579 20.4142C3.21071 20.0391 3 19.5304 3 19V5C3 3.89 3.89 3 5 3H6V1H8V3H16V1Z" fill="black"/>
<path d="M13 10.0004H11V13.0004H8V15.0004H11V18.0004H13V15.0004H16V13.0004H13V10.0004Z" fill="#F9F9F9"/>
<path d="M3.59961 6.59961L20.3996 6.59961" stroke="#F9F9F9" stroke-width="1.5"/>
</svg>
